# xmcd
#
# Track frame offsets:
# 150
# 16633
# 34432
# 52515
# 67240
# 93352
# 106830
# 126209
# 148773
# 162412
# 181713
# 196286
#
# Disc length: 2783 seconds
#
# Revision: 1
# Processed by: cddbd v1.5.2PL0 Copyright (c) Steve Scherf et al.
# Submitted via: CedeCatalogueitor 2.6.0.6 http://personales.ya.com/cdcatalogueitor
#
DISCID=9b0add0c
DTITLE=POP TOPS - SINGLE COLECTION
DYEAR=2003
DGENRE=POP
TTITLE0=MAMY BLUE
TTITLE1=OH LORD
TTITLE2=WHEN YOU COME BACK
TTITLE3=ROAD TO FREEDOM
TTITLE4=HOLA QUE TAL
TTITLE5=THAT WOMAN
TTITLE6=QUE IMPORTA
TTITLE7=PARAISO TROPICAL
TTITLE8=COMO UNA ABEJA
TTITLE9=BUSCANDO AMOR
TTITLE10=SOÑAR CANTAR Y BAILAR
TTITLE11=VIENTO DE OTOÑO
EXTD=AÑOS ´70
EXTT0=
EXTT1=
EXTT2=
EXTT3=
EXTT4=
EXTT5=
EXTT6=
EXTT7=
EXTT8=
EXTT9=
EXTT10=
EXTT11=
PLAYORDER=
